<?xml version="1.0" standalone="no"?>
<!DOCTYPE svg PUBLIC "-//W3C//DTD SVG 20010904//EN"
 "http://www.w3.org/TR/2001/REC-SVG-20010904/DTD/svg10.dtd">
<svg version="1.0" xmlns="http://www.w3.org/2000/svg"
 width="500.000000pt" height="500.000000pt" viewBox="0 0 500.000000 500.000000"
 preserveAspectRatio="xMidYMid meet">
<metadata>
Created by potrace 1.11, written by Peter Selinger 2001-2013
</metadata>
<g transform="translate(0.000000,500.000000) scale(0.100000,-0.100000)"
fill="#000000" stroke="none">
<path d="M650 3375 l-315 -315 613 0 612 0 0 -855 c0 -470 3 -855 8 -855 4 0
145 138 315 308 l307 307 0 548 0 547 619 0 620 0 3 -90 3 -90 -562 0 -563 0
0 -315 0 -315 559 0 560 0 3 -91 c2 -50 1 -93 -1 -95 -2 -2 -250 -4 -550 -4
l-546 0 -308 -308 c-169 -169 -307 -310 -307 -315 0 -4 528 -6 1173 -5 l1172
3 0 1125 0 1125 -1550 3 -1550 2 -315 -315z m3350 -815 l0 -1060 -1057 0
-1058 0 250 250 250 250 557 0 558 0 0 158 0 157 -560 -3 -560 -2 0 250 0 250
560 0 560 0 0 160 0 160 -690 0 -690 0 0 -568 0 -567 -245 -245 -245 -245 0
813 0 812 -558 0 -558 0 241 243 240 244 1503 1 1502 2 0 -1060z"/>
<path d="M797 3382 c-119 -119 -217 -221 -217 -225 0 -4 241 -7 535 -7 l535 0
0 -785 c0 -432 3 -785 8 -785 4 0 105 98 225 218 l217 217 0 568 0 567 715 0
715 0 0 -185 0 -185 -565 0 -565 0 2 -217 3 -218 563 -3 562 -2 0 -185 0 -185
-573 0 -572 0 -220 -220 -220 -220 1013 0 1012 0 0 1035 0 1035 -1478 0 -1477
0 -218 -218z"/>
</g>
</svg>
